<?xml version="1.0" encoding="UTF-8" standalone="no"?>
<!DOCTYPE svg PUBLIC "-//W3C//DTD SVG 1.1//EN" "http://www.w3.org/Graphics/SVG/1.1/DTD/svg11.dtd">
<svg width="100%" height="100%" viewBox="0 0 120 120" version="1.1" xmlns="http://www.w3.org/2000/svg" xmlns:xlink="http://www.w3.org/1999/xlink" xml:space="preserve" xmlns:serif="http://www.serif.com/" style="fill-rule:evenodd;clip-rule:evenodd;stroke-linecap:round;stroke-linejoin:round;stroke-miterlimit:1.5;">
    <g transform="matrix(1.2,0,0,1.5,28,-5.131)">
        <path d="M35,20L60,60L10,60L35,20Z" style="fill:none;stroke:white;stroke-width:3.07px;"/>
    </g>
    <g transform="matrix(1.2,0,0,1.5,8,-5.131)">
        <path d="M35,20L60,60L10,60L35,20Z" style="fill:none;stroke:white;stroke-width:3.07px;"/>
    </g>
    <g transform="matrix(0.301343,0,0,0.301343,-18.9061,88.0837)">
        <path d="M113.593,10.071L120.156,10.071L120.156,18.517L140.278,18.517L140.278,10.071L146.861,10.071L146.861,42.428L140.278,42.428L140.278,24.128L120.156,24.128L120.156,42.428L113.593,42.428L113.593,10.071Z" style="fill:white;fill-rule:nonzero;"/>
        <path d="M165.969,34.416L151.829,10.071L159.261,10.071L169.219,28.475L179.052,10.071L186.484,10.071L172.531,34.375L172.531,42.428L165.969,42.428L165.969,34.416Z" style="fill:white;fill-rule:nonzero;"/>
        <path d="M191.452,10.071L208.511,10.071C210.995,10.071 213.148,10.34 214.969,10.878C216.791,11.417 218.302,12.193 219.503,13.207C220.704,14.222 221.597,15.46 222.184,16.923C222.771,18.386 223.064,20.036 223.064,21.871C223.064,23.596 222.774,25.19 222.194,26.653C221.615,28.116 220.728,29.382 219.534,30.452C218.34,31.522 216.833,32.356 215.011,32.957C213.189,33.557 211.036,33.857 208.552,33.857L198.015,33.837L198.015,42.428L191.452,42.428L191.452,10.071ZM208.676,28.164C209.918,28.164 211.005,28.016 211.937,27.719C212.868,27.423 213.648,27.002 214.276,26.457C214.904,25.911 215.373,25.249 215.684,24.469C215.994,23.689 216.149,22.823 216.149,21.871C216.149,19.953 215.525,18.459 214.276,17.389C213.027,16.32 211.16,15.785 208.676,15.785L198.015,15.785L198.015,28.164L208.676,28.164Z" style="fill:white;fill-rule:nonzero;"/>
        <path d="M230.227,10.071L257.781,10.071L257.781,15.826L236.789,15.826L236.789,22.285L255.379,22.285L255.379,27.688L236.789,27.688L236.789,36.693L258.215,36.693L258.215,42.428L230.227,42.428L230.227,10.071Z" style="fill:white;fill-rule:nonzero;"/>
        <path d="M265.502,10.071L281.96,10.071C284.444,10.071 286.597,10.33 288.419,10.847C290.241,11.365 291.752,12.114 292.953,13.094C294.153,14.073 295.047,15.267 295.634,16.675C296.22,18.083 296.513,19.677 296.513,21.457C296.513,22.658 296.368,23.8 296.079,24.883C295.789,25.967 295.344,26.964 294.743,27.875C294.143,28.785 293.387,29.596 292.477,30.307C291.566,31.018 290.496,31.608 289.268,32.077L296.306,42.428L288.274,42.428L282.188,33.236L282.002,33.236L272.065,33.216L272.065,42.428L265.502,42.428L265.502,10.071ZM282.126,27.543C283.368,27.543 284.455,27.398 285.386,27.109C286.318,26.819 287.098,26.412 287.726,25.887C288.353,25.363 288.823,24.724 289.133,23.972C289.444,23.22 289.599,22.382 289.599,21.457C289.599,19.649 288.978,18.252 287.736,17.265C286.494,16.278 284.624,15.785 282.126,15.785L272.065,15.785L272.065,27.543L282.126,27.543Z" style="fill:white;fill-rule:nonzero;"/>
        <path d="M302.31,26.053C302.31,23.748 302.745,21.599 303.614,19.604C304.484,17.61 305.743,15.878 307.392,14.408C309.041,12.938 311.056,11.782 313.437,10.941C315.818,10.099 318.512,9.678 321.521,9.678C324.157,9.678 326.576,9.943 328.777,10.475C330.978,11.006 333.024,11.817 334.915,12.907L331.893,17.876C331.327,17.503 330.675,17.172 329.936,16.882C329.198,16.592 328.411,16.347 327.576,16.147C326.741,15.947 325.879,15.792 324.989,15.681C324.098,15.571 323.219,15.516 322.349,15.516C320.251,15.516 318.381,15.774 316.739,16.292C315.097,16.81 313.713,17.534 312.588,18.466C311.463,19.397 310.608,20.508 310.021,21.799C309.435,23.089 309.141,24.507 309.141,26.053C309.141,27.654 309.445,29.124 310.052,30.462C310.66,31.801 311.539,32.957 312.692,33.93C313.844,34.903 315.252,35.662 316.915,36.207C318.578,36.752 320.458,37.025 322.556,37.025C323.508,37.025 324.454,36.956 325.392,36.818C326.331,36.68 327.238,36.49 328.115,36.248C328.991,36.007 329.836,35.717 330.65,35.379C331.465,35.041 332.224,34.672 332.928,34.271L335.95,39.24C334.184,40.371 332.141,41.258 329.822,41.9C327.504,42.542 325.04,42.863 322.432,42.863C319.106,42.863 316.187,42.431 313.675,41.569C311.163,40.706 309.066,39.519 307.382,38.008C305.698,36.497 304.432,34.716 303.583,32.667C302.734,30.618 302.31,28.413 302.31,26.053Z" style="fill:white;fill-rule:nonzero;"/>
        <path d="M354.209,10.071L361.165,10.071L376.815,42.428L369.922,42.428L367.334,36.983L348.433,36.983L345.928,42.428L339.014,42.428L354.209,10.071ZM364.746,31.58L357.749,16.882L350.938,31.58L364.746,31.58Z" style="fill:white;fill-rule:nonzero;"/>
        <path d="M391.596,15.826L379.651,15.826L379.651,10.071L410.104,10.071L410.104,15.826L398.159,15.826L398.159,42.428L391.596,42.428L391.596,15.826Z" style="fill:white;fill-rule:nonzero;"/>
    </g>
</svg>
